<?xml version="1.0" standalone="no"?>
<!DOCTYPE svg PUBLIC "-//W3C//DTD SVG 20010904//EN"
 "http://www.w3.org/TR/2001/REC-SVG-20010904/DTD/svg10.dtd">
<svg version="1.0" xmlns="http://www.w3.org/2000/svg"
 width="212.000000pt" height="58.000000pt" viewBox="0 0 212.000000 58.000000"
 preserveAspectRatio="xMidYMid meet">

<g transform="translate(0.000000,58.000000) scale(0.100000,-0.100000)"
fill="#000000" stroke="none">
<path d="M290 490 c0 -17 -9 -39 -20 -50 -11 -11 -20 -28 -19 -37 0 -14 2 -14
9 3 5 12 18 29 30 37 12 9 19 20 16 25 -3 5 1 15 9 22 17 14 11 30 -11 30 -9
0 -14 -11 -14 -30z"/>
<path d="M358 453 c7 -3 16 -2 19 1 4 3 -2 6 -13 5 -11 0 -14 -3 -6 -6z"/>
<path d="M465 441 c91 -7 102 -12 121 -55 8 -20 13 -24 14 -13 0 10 -13 32
-29 48 -28 27 -34 29 -108 27 l-78 -1 80 -6z"/>
<path d="M190 356 c0 -21 19 -30 26 -12 8 22 34 20 34 -1 1 -10 7 -29 15 -43
18 -32 18 -25 1 25 -12 34 -19 40 -45 43 -22 2 -31 -1 -31 -12z"/>
<path d="M1260 340 c0 -5 7 -10 15 -10 8 0 15 5 15 10 0 6 -7 10 -15 10 -8 0
-15 -4 -15 -10z"/>
<path d="M650 290 c0 -38 4 -50 15 -50 8 0 15 9 15 20 0 11 7 20 15 20 8 0 15
-9 15 -20 0 -11 7 -20 15 -20 11 0 15 12 15 50 0 38 -4 50 -15 50 -8 0 -15 -9
-15 -20 0 -11 -7 -20 -15 -20 -8 0 -15 9 -15 20 0 11 -7 20 -15 20 -11 0 -15
-12 -15 -50z"/>
<path d="M873 320 c-17 -27 -2 -74 25 -78 12 -2 22 1 22 7 0 6 -7 11 -15 11
-17 0 -20 21 -6 36 6 5 5 15 -3 26 -11 15 -13 15 -23 -2z"/>
<path d="M1020 290 c0 -38 4 -50 15 -50 11 0 15 12 15 50 0 38 -4 50 -15 50
-11 0 -15 -12 -15 -50z"/>
<path d="M1151 290 c-1 -39 2 -50 14 -50 8 0 15 9 15 20 0 11 7 20 15 20 8 0
15 -9 15 -20 0 -11 7 -20 15 -20 11 0 15 12 15 50 0 38 -4 50 -15 50 -8 0 -15
-9 -15 -20 0 -11 -7 -20 -15 -20 -8 0 -15 9 -15 20 0 11 -6 20 -13 20 -10 0
-14 -16 -16 -50z"/>
<path d="M765 300 c-4 -6 -4 -22 -1 -36 6 -21 12 -25 39 -22 28 3 32 7 32 33
0 26 -4 30 -32 33 -17 2 -34 -2 -38 -8z m47 -32 c-15 -15 -26 -4 -18 18 5 13
9 15 18 6 9 -9 9 -15 0 -24z"/>
<path d="M933 294 c-3 -9 -2 -24 4 -33 11 -18 63 -28 63 -12 0 6 -10 11 -22
12 l-23 0 23 9 c12 5 22 16 22 25 0 21 -59 20 -67 -1z m47 -4 c0 -5 -4 -10
-10 -10 -5 0 -10 5 -10 10 0 6 5 10 10 10 6 0 10 -4 10 -10z"/>
<path d="M1070 295 c0 -9 10 -20 23 -25 l22 -9 -22 0 c-32 -1 -29 -21 2 -21
32 0 45 29 19 43 -17 10 -17 11 1 18 16 6 13 8 -12 8 -23 1 -33 -4 -33 -14z"/>
<path d="M1270 275 c0 -19 5 -35 10 -35 6 0 10 16 10 35 0 19 -4 35 -10 35 -5
0 -10 -16 -10 -35z"/>
<path d="M1320 260 c0 -27 5 -50 10 -50 6 0 10 7 10 15 0 9 9 15 25 15 18 0
26 7 31 24 8 35 -2 46 -42 46 l-34 0 0 -50z m53 25 c8 -18 -11 -31 -25 -17
-11 11 -3 32 12 32 4 0 10 -7 13 -15z"/>
<path d="M1420 261 c0 -39 4 -51 15 -51 8 0 15 6 15 14 0 8 10 16 23 18 17 2
22 10 22 33 0 27 -3 30 -37 33 l-38 3 0 -50z m60 13 c0 -8 -7 -14 -15 -14 -15
0 -21 21 -9 33 10 9 24 -2 24 -19z"/>
<path d="M1524 296 c-12 -31 0 -51 31 -51 27 0 30 4 33 33 3 30 1 32 -28 32
-17 0 -33 -6 -36 -14z m46 -22 c0 -8 -7 -14 -15 -14 -15 0 -21 21 -9 33 10 9
24 -2 24 -19z"/>
<path d="M1684 296 c-11 -29 1 -51 29 -54 15 -2 27 1 27 7 0 6 -9 11 -20 11
-27 0 -25 28 3 40 21 8 21 9 -6 9 -15 1 -30 -5 -33 -13z"/>
<path d="M1764 296 c-11 -28 1 -51 27 -54 31 -4 53 20 44 48 -8 24 -62 29 -71
6z m46 -22 c0 -8 -7 -14 -15 -14 -15 0 -21 21 -9 33 10 9 24 -2 24 -19z"/>
<path d="M1860 275 c0 -41 17 -47 22 -8 4 39 28 42 28 4 0 -38 27 -43 32 -6 2
14 8 26 13 26 6 0 11 -12 13 -26 5 -38 22 -30 22 10 l0 35 -65 0 -65 0 0 -35z"/>
<path d="M261 247 c-13 -21 -12 -21 5 -5 10 10 16 20 13 22 -3 3 -11 -5 -18
-17z"/>
<path d="M570 250 c-6 -11 -8 -20 -6 -20 3 0 10 9 16 20 6 11 8 20 6 20 -3 0
-10 -9 -16 -20z"/>
<path d="M1626 263 c-11 -11 -6 -23 9 -23 8 0 15 4 15 9 0 13 -16 22 -24 14z"/>
<path d="M380 206 c0 -2 7 -7 16 -10 8 -3 12 -2 9 4 -6 10 -25 14 -25 6z"/>
<path d="M231 181 c-1 -20 -3 -22 -17 -11 -13 11 -19 9 -40 -12 -23 -22 -24
-28 -13 -47 8 -11 21 -21 29 -21 18 0 53 75 47 99 -3 10 -5 7 -6 -8z m-31 -71
c0 -5 -4 -10 -10 -10 -5 0 -10 5 -10 10 0 6 5 10 10 10 6 0 10 -4 10 -10z"/>
<path d="M433 193 c9 -2 25 -2 35 0 9 3 1 5 -18 5 -19 0 -27 -2 -17 -5z"/>
<path d="M261 177 c-8 -10 -7 -14 4 -14 8 0 15 6 15 14 0 7 -2 13 -4 13 -2 0
-9 -6 -15 -13z"/>
<path d="M396 163 c-6 -14 -5 -15 5 -6 7 7 10 15 7 18 -3 3 -9 -2 -12 -12z"/>
<path d="M260 146 c0 -2 7 -6 15 -10 8 -3 15 -1 15 4 0 6 -7 10 -15 10 -8 0
-15 -2 -15 -4z"/>
<path d="M392 120 c0 -14 2 -19 5 -12 2 6 2 18 0 25 -3 6 -5 1 -5 -13z"/>
<path d="M324 118 c-5 -7 -3 -8 5 -4 7 5 18 0 26 -10 13 -18 14 -18 8 4 -6 24
-27 30 -39 10z"/>
</g>
</svg>
